<svg xmlns="http://www.w3.org/2000/svg" fill="none" viewBox="0 0 58 58"><g fill="#00ced1" clip-path="url(#a)"><path d="M32.508 18.918h-7.024v6.797h7.024a3.403 3.403 0 0 0 3.398-3.399 3.403 3.403 0 0 0-3.398-3.398"/><path d="M49.504 0H8.496C3.812 0 0 3.812 0 8.496v41.008C0 54.188 3.812 58 8.496 58h41.008C54.188 58 58 54.188 58 49.504V8.496C58 3.812 54.188 0 49.504 0M32.512 32.512h-7.024v11.894a1.7 1.7 0 0 1-1.699 1.7h-3.398a1.7 1.7 0 0 1-1.7-1.7V13.82c0-.938.761-1.699 1.7-1.699h12.12c5.623 0 10.196 4.573 10.196 10.195s-4.573 10.196-10.195 10.196"/></g><defs><clipPath id="a"><path fill="#fff" d="M0 0h58v58H0z"/></clipPath></defs></svg>