<svg xmlns="http://www.w3.org/2000/svg" fill="none" viewBox="0 0 43 44"><path fill="#00ced1" fill-rule="evenodd" d="M22.236 33.059c-2.159 0-3.162-.317-4.906-1.586-1.103 1.427-4.596 2.543-4.749.634 0-1.433-.315-2.643-.672-3.965-.426-1.628-.909-3.441-.909-6.069 0-6.275 5.116-10.996 11.179-10.996 6.067 0 10.82 4.954 10.82 11.054a10.93 10.93 0 0 1-3.135 7.704 10.8 10.8 0 0 1-7.628 3.224m.09-16.558c-2.953-.153-5.253 1.903-5.763 5.128-.42 2.67.326 5.921.961 6.09.305.074 1.072-.55 1.55-1.03.79.549 1.71.879 2.669.956a5.6 5.6 0 0 0 4.009-1.426 5.67 5.67 0 0 0 1.869-3.844 5.68 5.68 0 0 0-1.456-4.024 5.6 5.6 0 0 0-3.84-1.844z" clip-rule="evenodd"/></svg>