<svg xmlns="http://www.w3.org/2000/svg" fill="none" viewBox="0 0 43 44"><path fill="#00ced1" d="M22 12.08c5.523 0 10 4.486 10 10.02s-4.477 10.02-10 10.02a9.94 9.94 0 0 1-5.03-1.358l-4.966 1.358 1.352-4.978A10 10 0 0 1 12 22.1c0-5.534 4.477-10.02 10-10.02m-3.408 5.31-.2.008a1 1 0 0 0-.372.1 1.3 1.3 0 0 0-.294.229c-.12.113-.188.211-.261.307a2.74 2.74 0 0 0-.566 1.681c.002.491.13.969.33 1.416.409.904 1.082 1.86 1.97 2.747.214.214.424.428.65.628a9.44 9.44 0 0 0 3.84 2.05l.568.087c.185.01.37-.004.556-.013.291-.015.576-.094.833-.232q.196-.1.383-.22 0 0 .125-.09c.135-.1.218-.172.33-.289q.126-.13.21-.302c.078-.164.156-.475.188-.735.024-.198.017-.306.014-.373-.004-.108-.093-.219-.19-.266l-.582-.262s-.87-.38-1.402-.622a.5.5 0 0 0-.176-.04.48.48 0 0 0-.378.126c-.005-.002-.072.055-.795.933a.35.35 0 0 1-.368.13 1.4 1.4 0 0 1-.191-.066c-.124-.052-.167-.072-.252-.108a6 6 0 0 1-1.575-1.005c-.126-.11-.243-.23-.363-.347a6.3 6.3 0 0 1-1.02-1.27l-.059-.095a1 1 0 0 1-.102-.206c-.038-.147.061-.265.061-.265s.243-.267.356-.411c.11-.14.203-.277.263-.374.118-.19.155-.386.093-.537q-.42-1.028-.868-2.045c-.059-.134-.234-.23-.393-.25a2.994 2.994 0 0 0-.565-.012z"/></svg>