<svg xmlns="http://www.w3.org/2000/svg" fill="none" viewBox="0 0 44 44"><path fill="#00ced1" fill-rule="evenodd" d="M29.017 13.2a1.497 1.497 0 0 1 1.98.841c.097.25.125.522.082.787L28.81 28.614c-.22 1.33-1.676 2.093-2.893 1.43-1.018-.554-2.53-1.408-3.89-2.298-.68-.446-2.763-1.874-2.507-2.89.22-.869 3.72-4.134 5.72-6.074.785-.763.427-1.203-.5-.502-2.302 1.742-5.998 4.39-7.22 5.136-1.078.657-1.64.77-2.312.657-1.226-.204-2.363-.52-3.291-.907-1.254-.52-1.193-2.248-.001-2.751z" clip-rule="evenodd"/></svg>