<svg xmlns="http://www.w3.org/2000/svg" fill="none" viewBox="0 0 209 71"><path stroke="#00ced1" stroke-linecap="round" stroke-miterlimit="22.93" stroke-width="3.022" d="M60.121 23.889c-2.762 2.315-16.152 21.824-18.55 24.855"/><path stroke="#00ced1" stroke-linecap="round" stroke-miterlimit="22.93" stroke-width="3.022" d="M61.9 40.775c3.692-4.975-1.664-13.418-5.309-16.3-9.531-7.533-36.134-3.265-35.902 9.158.26 13.427 28.23 12.265 36.042 3.208"/><path stroke="#00ced1" stroke-linecap="round" stroke-linejoin="round" stroke-width="3.022" d="M18.766 48.306c1.543-.967 5.402-1.785 11-.595 24.995 5.31 28.714-1.757 48.436-26.594-5.235 7.383-5.95 17.863-12.85 27.32C73.237 39.993 77.3 36.999 86.31 21.61c-7.309 14.664-12.656 24.772-8.322 27.422 2.808 1.71 8.09-4.361 9.512-6.463"/><path stroke="#00ced1" stroke-miterlimit="22.93" stroke-width="3.031" d="M53.15 68.577c28.518 0 51.636-15.012 51.636-33.53 0-18.52-23.118-33.531-51.635-33.531-28.518 0-51.635 15.012-51.635 33.53 0 18.52 23.118 33.531 51.635 33.531Z"/><path stroke="#00ced1" stroke-miterlimit="22.93" stroke-width="1.73" d="M53.312 64.021c25.755 0 46.633-12.972 46.633-28.974S79.067 6.072 53.312 6.072C27.558 6.072 6.68 19.045 6.68 35.047S27.558 64.02 53.312 64.02Z"/><path fill="#00ced1" fill-rule="evenodd" d="M123.96 25.178v1.664h-.14c-.102-.437-.297-.772-.576-1.004a1.46 1.46 0 0 0-.958-.344 1.38 1.38 0 0 0-.818.26c-.251.177-.428.4-.549.679a3.05 3.05 0 0 0-.223 1.19c0 .437.056.819.158 1.172.111.353.279.623.511.8.233.176.53.27.893.27q.448 0 .828-.196c.251-.13.511-.363.79-.679v.41q-.405.418-.837.613c-.288.13-.632.186-1.014.186-.511 0-.967-.102-1.357-.307a2.17 2.17 0 0 1-.921-.883 2.5 2.5 0 0 1-.325-1.228 2.61 2.61 0 0 1 1.32-2.26 2.65 2.65 0 0 1 1.293-.334q.502 0 1.06.223c.214.084.353.13.409.13a.27.27 0 0 0 .195-.083.45.45 0 0 0 .112-.26h.139zm4.965.111v1.293h-.121q-.111-.447-.251-.642a1 1 0 0 0-.381-.316c-.093-.037-.242-.065-.474-.065h-.363v3.7c0 .252.009.4.037.466.028.065.084.111.158.158a.6.6 0 0 0 .316.074h.159v.121h-2.493v-.12h.159a.7.7 0 0 0 .334-.075.36.36 0 0 0 .14-.168c.028-.055.037-.204.037-.446v-3.7h-.344c-.316 0-.558.064-.697.204-.205.186-.335.465-.382.818h-.139V25.3h4.305zm2.957-.056c.763-.027 1.386.196 1.86.67s.716 1.06.716 1.776c0 .605-.177 1.144-.53 1.6-.474.613-1.135.92-1.999.92s-1.525-.288-2-.874c-.372-.465-.558-1.004-.558-1.637 0-.706.242-1.301.726-1.776q.725-.71 1.785-.67zm.037.224q-.656 0-1.004.67c-.186.362-.279.892-.279 1.58 0 .818.149 1.423.437 1.813.205.27.484.41.846.41.242 0 .447-.056.614-.177.205-.15.372-.39.483-.726.112-.334.177-.762.177-1.292 0-.632-.056-1.107-.177-1.423q-.178-.474-.455-.67a1.06 1.06 0 0 0-.632-.195zm6.249 2.994 1.311-3.162h1.943v.121h-.158a.7.7 0 0 0-.334.075.4.4 0 0 0-.14.167c-.028.056-.037.204-.037.446v3.162c0 .25.009.4.037.465a.33.33 0 0 0 .158.158.64.64 0 0 0 .316.074h.158v.121h-2.492v-.12h.158c.14 0 .252-.029.335-.075a.4.4 0 0 0 .14-.168c.028-.055.037-.204.037-.446v-3.552l-1.841 4.37h-.084l-1.869-4.333v3.376c0 .241 0 .38.019.437q.042.179.195.288c.102.074.26.111.483.111v.121h-1.645v-.12h.046a.8.8 0 0 0 .298-.056.43.43 0 0 0 .204-.149.8.8 0 0 0 .112-.26v-3.394c0-.252-.009-.4-.037-.465a.33.33 0 0 0-.158-.158.65.65 0 0 0-.326-.075h-.149v-.12h1.953l1.348 3.16zm6.379.27h-1.674l-.205.464a1.1 1.1 0 0 0-.102.391c0 .14.056.232.158.297q.098.057.474.084v.121h-1.59v-.12a.73.73 0 0 0 .419-.215c.111-.12.251-.362.409-.734l1.711-3.822h.065l1.73 3.924c.167.372.297.614.409.707.083.074.195.12.344.13v.12h-2.316v-.12h.093q.28 0 .391-.084c.056-.037.074-.093.074-.167 0-.047 0-.084-.018-.13 0-.019-.037-.112-.103-.27l-.26-.595zm-.112-.26-.716-1.637-.734 1.636zm6.258-3.172h-4.305v1.293h.139c.056-.354.186-.623.382-.819.148-.139.381-.204.697-.204h.344v3.7c0 .243-.009.391-.037.447a.32.32 0 0 1-.14.168.7.7 0 0 1-.334.074h-.158v.12h2.492v-.12h-.158c-.14 0-.242-.019-.317-.075a.43.43 0 0 1-.158-.158c-.028-.065-.037-.213-.037-.465v-3.7h.363c.223 0 .381.018.474.065a.9.9 0 0 1 .381.316q.14.195.251.642h.121V25.28zm2.957-.056c.763-.027 1.386.196 1.86.67s.716 1.06.716 1.776c0 .605-.177 1.144-.53 1.6-.474.613-1.135.92-1.999.92s-1.535-.288-2-.874c-.372-.465-.557-1.004-.557-1.637 0-.706.241-1.301.725-1.776q.725-.71 1.785-.67zm.047.224q-.656 0-1.005.67c-.186.362-.279.892-.279 1.58 0 .818.149 1.423.437 1.813.205.27.484.41.847.41.241 0 .446-.056.613-.177.205-.15.372-.39.484-.726.111-.334.177-.762.177-1.292 0-.632-.056-1.107-.177-1.423s-.27-.54-.456-.67a1.06 1.06 0 0 0-.632-.195zm7.615-.047v-.12h-3.887v.12c.233 0 .391.028.484.065a.33.33 0 0 1 .186.186c.028.084.046.26.046.521v.902c0 .66-.028 1.172-.083 1.516s-.168.623-.335.818-.326.297-.474.297c-.103 0-.168-.074-.177-.223q-.042-.502-.446-.502-.224 0-.335.14a.57.57 0 0 0-.121.362.6.6 0 0 0 .186.447c.13.12.307.186.539.186.251 0 .484-.075.698-.214.214-.14.381-.354.511-.633.13-.278.214-.576.242-.892s.046-.772.046-1.367v-1.432h1.153v3.756q0 .28-.055.391a.3.3 0 0 1-.168.158 1.3 1.3 0 0 1-.409.047v.12h2.409v-.12c-.27 0-.438-.047-.521-.121q-.112-.112-.112-.502v-3.339c0-.232.037-.38.112-.465.074-.083.242-.12.502-.12zm2.994-.177c.763-.027 1.386.196 1.86.67s.716 1.06.716 1.776c0 .605-.177 1.144-.53 1.6-.474.613-1.134.92-1.999.92s-1.525-.288-1.999-.874c-.372-.465-.558-1.004-.558-1.637 0-.706.242-1.301.725-1.776q.726-.71 1.785-.67zm.047.224q-.656 0-1.004.67c-.186.362-.279.892-.279 1.58q.002 1.228.437 1.813c.204.27.483.41.846.41.242 0 .446-.056.614-.177.204-.15.372-.39.483-.726.112-.334.177-.762.177-1.292 0-.632-.056-1.107-.177-1.423s-.27-.54-.456-.67a1.06 1.06 0 0 0-.632-.195zm2.938-.168h4.222v1.302h-.121c-.056-.316-.13-.549-.214-.679a.57.57 0 0 0-.325-.25c-.131-.038-.382-.056-.763-.056h-.976v3.728c0 .27.037.447.121.52.074.075.223.113.427.113h.121v.12h-2.492v-.12h.13c.205 0 .354-.038.428-.121.075-.084.112-.251.112-.512v-3.31c0-.223-.028-.381-.093-.465q-.096-.14-.428-.14h-.149v-.13m8.109.79c0-.26-.038-.436-.093-.53-.056-.092-.214-.139-.447-.139h-.158v-.12h2.567v.12h-.168c-.223 0-.372.047-.437.13-.074.084-.111.27-.111.568v3.161c0 .298.037.484.111.567.075.084.223.13.437.13h.168v.121h-2.567v-.12h.158c.223 0 .372-.047.437-.13.065-.094.103-.28.103-.559v-2.612l-1.693 2.659c0 .232.028.39.084.493s.214.148.456.148h.167v.121h-2.566v-.12h.158c.223 0 .372-.047.446-.13.074-.094.102-.28.102-.559v-3.161c0-.288-.028-.484-.083-.567-.056-.084-.214-.13-.465-.13h-.158v-.121h2.566v.12h-.167c-.214 0-.363.047-.437.14s-.112.279-.112.549v2.631l1.692-2.66zm4.816-.79h2.316v.121c-.307 0-.502.028-.568.093s-.102.214-.102.456v3.384c0 .186.009.307.037.382.028.065.075.13.149.167.075.047.186.065.335.065h.158v.121h-2.492v-.12c.214 0 .363-.02.446-.047a.32.32 0 0 0 .177-.158.8.8 0 0 0 .056-.335v-1.544c-.558.289-1.07.428-1.516.428-.251 0-.465-.037-.632-.12a.73.73 0 0 1-.372-.354q-.112-.223-.112-.67v-1.125c0-.27-.046-.446-.139-.52s-.27-.112-.521-.112v-.121h2.297v.12q-.237-.002-.363.094-.128.1-.13.409v1.293c0 .148.009.26.037.325a.4.4 0 0 0 .177.195.7.7 0 0 0 .353.084c.298 0 .605-.084.921-.242V26.08c0-.214-.01-.363-.028-.437a.3.3 0 0 0-.14-.186c-.074-.047-.176-.065-.325-.065v-.121zm4.426.28v1.952h.093c.307 0 .53-.093.661-.288.139-.186.223-.474.26-.846h.14v2.51h-.14c-.028-.27-.084-.502-.177-.67-.093-.176-.195-.288-.316-.353a1.3 1.3 0 0 0-.521-.093v1.349c0 .26.01.427.038.483a.3.3 0 0 0 .121.149.6.6 0 0 0 .297.056h.288q.672 0 1.079-.307.407-.306.577-.949h.13l-.214 1.525h-4.138v-.12h.158a.7.7 0 0 0 .335-.075.3.3 0 0 0 .139-.167c.028-.056.037-.205.037-.447v-3.161c0-.214 0-.354-.018-.4a.32.32 0 0 0-.13-.195.62.62 0 0 0-.363-.102h-.158v-.121h4.008v1.413h-.14c-.065-.344-.167-.595-.288-.744a1.1 1.1 0 0 0-.521-.335c-.13-.037-.381-.065-.734-.065zm7.681-.391v1.664h-.139q-.156-.656-.577-1.004a1.46 1.46 0 0 0-.958-.344c-.297 0-.567.084-.818.26-.251.177-.428.4-.549.679a3.1 3.1 0 0 0-.223 1.19c0 .437.056.819.158 1.172.112.353.279.623.512.8.232.176.53.27.892.27.298 0 .577-.066.828-.196s.511-.363.79-.679v.41a2.8 2.8 0 0 1-.836.613c-.289.13-.633.186-1.014.186-.511 0-.967-.102-1.358-.307a2.17 2.17 0 0 1-.92-.883 2.5 2.5 0 0 1-.326-1.228c0-.455.121-.892.363-1.301a2.59 2.59 0 0 1 2.26-1.293q.501 0 1.06.223c.214.084.353.13.409.13a.27.27 0 0 0 .195-.083.45.45 0 0 0 .112-.26h.139zm.549.111h2.492v.121h-.084c-.232 0-.39.047-.474.13-.075.084-.121.251-.121.503v1.431c.335 0 .549-.009.642-.037.102-.018.186-.083.279-.195.083-.112.167-.316.241-.623.093-.353.177-.623.27-.8.084-.176.205-.325.353-.427a1 1 0 0 1 .568-.159c.223 0 .409.066.539.196.139.13.204.288.204.474 0 .149-.046.26-.139.344a.5.5 0 0 1-.344.13c-.27 0-.409-.158-.437-.465-.009-.158-.065-.232-.158-.232-.102 0-.195.056-.27.177-.074.12-.158.334-.242.641s-.158.53-.223.688a1 1 0 0 1-.26.381c.149.038.27.084.344.15.084.064.158.139.223.241.065.093.205.344.428.744l.483.874c.075.13.168.223.27.288a.7.7 0 0 0 .381.093v.121h-1.608l-.986-1.832c-.112-.214-.195-.334-.251-.381s-.158-.074-.316-.074v1.627q0 .348.139.446c.093.065.27.093.53.093v.121h-2.492v-.12c.279 0 .456-.047.539-.122.084-.074.131-.241.131-.502v-3.208c0-.279-.038-.474-.103-.567s-.223-.149-.465-.149h-.102v-.12zm8.099 3.432h-1.674l-.204.464a1.1 1.1 0 0 0-.103.391c0 .14.056.232.158.297q.098.057.475.084v.121h-1.59v-.12a.8.8 0 0 0 .427-.215c.112-.12.251-.362.409-.734l1.711-3.822h.065l1.73 3.924c.167.372.298.614.409.707a.55.55 0 0 0 .344.13v.12h-2.315v-.12h.093q.279 0 .39-.084c.056-.037.075-.093.075-.167 0-.047 0-.084-.019-.13 0-.019-.037-.112-.102-.27l-.261-.595zm-.112-.26-.716-1.637-.734 1.636zm5.607-.559v1.348c0 .26-.018.419-.046.493a.3.3 0 0 1-.168.158c-.083.038-.232.066-.446.066v.12h2.455v-.12q-.335.002-.446-.066a.3.3 0 0 1-.168-.158c-.028-.065-.046-.232-.046-.483v-3.134c0-.26.018-.418.046-.483a.3.3 0 0 1 .168-.158q.125-.057.446-.056v-.121h-2.232c-.576 0-1.004.037-1.274.12a1.3 1.3 0 0 0-.66.447 1.2 1.2 0 0 0-.251.763c0 .353.13.641.381.874a1.5 1.5 0 0 0 .679.325l-1.153 1.627c-.149.205-.26.335-.325.39a.6.6 0 0 1-.335.122v.13h1.506l1.544-2.185h.316zm0-2.343v2.092h-.204c-.326 0-.577-.028-.735-.093a.72.72 0 0 1-.381-.325q-.14-.237-.14-.614c0-.363.084-.632.261-.809.167-.177.446-.26.827-.26h.382zM119.172 33.435h5.905v.288h-.196q-.837 0-1.116.307-.279.304-.279 1.18v3.385c.782 0 1.293-.028 1.525-.083.233-.056.447-.205.651-.456s.391-.744.577-1.47c.214-.845.428-1.478.632-1.905a2.53 2.53 0 0 1 .846-1.014c.354-.251.809-.372 1.339-.372s.967.149 1.284.456c.325.307.483.678.483 1.125 0 .344-.112.623-.325.818a1.12 1.12 0 0 1-.809.307c-.633 0-.977-.372-1.023-1.106-.019-.373-.149-.559-.381-.559q-.377-.002-.642.428c-.177.288-.372.8-.577 1.525a15 15 0 0 1-.52 1.618c-.14.363-.354.66-.614.902.353.084.632.205.818.354.196.148.363.334.521.567s.493.818 1.004 1.767l1.153 2.064c.177.307.391.54.642.688.251.149.548.223.902.223v.288h-3.803l-2.334-4.342c-.27-.493-.465-.8-.586-.902s-.372-.167-.763-.186v3.85c0 .548.112.901.344 1.06.224.148.642.232 1.256.232v.288h-5.905v-.288c.651-.01 1.079-.111 1.283-.288q.307-.277.307-1.181v-7.597c0-.67-.083-1.116-.242-1.348-.158-.233-.53-.344-1.106-.344h-.242v-.289zm24.344.288c-.614 0-1.014.102-1.191.297-.176.196-.269.568-.269 1.107v7.895c0 .604.093 1.004.269 1.18.177.177.586.28 1.228.289v.288h-5.7v-.288q.68 0 .958-.112a.74.74 0 0 0 .399-.372c.084-.177.131-.483.131-.93V34.18h-2.725v3.384c0 1.414-.037 2.502-.102 3.236a6.1 6.1 0 0 1-.577 2.11c-.316.67-.725 1.172-1.218 1.507a2.86 2.86 0 0 1-1.646.502c-.548 0-.967-.14-1.274-.427a1.43 1.43 0 0 1-.455-1.07q0-.53.279-.864c.186-.224.446-.345.799-.345q.963 0 1.06 1.2.042.53.419.53c.353 0 .725-.232 1.116-.707.4-.474.66-1.125.79-1.943q.195-1.244.195-3.59v-2.138q0-.921-.111-1.227a.77.77 0 0 0-.437-.447c-.214-.093-.595-.149-1.144-.158v-.288h9.206v.288zm9.14 1.571c0-.613-.083-1.032-.223-1.246-.139-.214-.493-.325-1.06-.325h-.372v-.288h6.072v.288h-.39c-.521 0-.875.102-1.042.307-.167.204-.26.65-.26 1.339v7.476c0 .697.083 1.144.26 1.348.177.195.521.298 1.042.298h.39v.288h-6.072v-.288h.372c.53 0 .874-.103 1.041-.316.159-.214.242-.651.242-1.33V36.66l-4.007 6.295c0 .549.065.93.195 1.172q.195.351 1.088.353h.39v.289h-6.072v-.289h.382c.53 0 .883-.102 1.05-.316s.251-.65.251-1.33V35.36c0-.688-.065-1.134-.204-1.339-.13-.204-.502-.306-1.097-.306h-.382v-.289h6.072v.289h-.39c-.512 0-.856.111-1.023.334-.177.223-.26.66-.26 1.311v6.23l4.007-6.304zm9.327 4.027v3.524c0 .586.028.948.093 1.097s.186.27.372.381q.279.168.753.168h.372v.288h-5.905v-.288h.372c.326 0 .595-.056.791-.177a.75.75 0 0 0 .334-.41c.056-.13.093-.483.093-1.06V35.37c0-.586-.028-.949-.093-1.098-.065-.148-.186-.27-.372-.38q-.279-.168-.753-.168h-.372v-.288h5.905v.288h-.372c-.326 0-.586.056-.79.177a.85.85 0 0 0-.345.409c-.055.13-.093.483-.093 1.06v3.217H166v-3.217c0-.586-.028-.949-.093-1.098-.065-.148-.186-.27-.372-.38q-.279-.168-.753-.168h-.372v-.288h5.904v.288h-.372c-.334 0-.595.056-.79.177a.8.8 0 0 0-.344.409c-.056.13-.093.483-.093 1.06v7.476c0 .586.028.948.093 1.097s.186.27.372.381q.279.168.753.168h.372v.288H164.4v-.288h.372c.335 0 .595-.056.791-.177a.8.8 0 0 0 .344-.41c.056-.13.093-.483.093-1.06v-3.523h-4.027zm17.295-4.027c0-.613-.083-1.032-.223-1.246-.139-.214-.493-.325-1.06-.325h-.372v-.288h6.072v.288h-.39c-.521 0-.875.102-1.042.307-.167.204-.26.65-.26 1.339v7.476c0 .697.083 1.144.26 1.348.177.195.521.298 1.042.298h.39v.288h-6.072v-.288h.372c.53 0 .874-.103 1.041-.316.159-.214.242-.651.242-1.33V36.66l-4.007 6.295c0 .549.065.93.195 1.172q.195.351 1.088.353h.39v.289h-6.072v-.289h.382c.53 0 .883-.102 1.05-.316s.251-.65.251-1.33V35.36c0-.688-.065-1.134-.204-1.339-.13-.204-.502-.306-1.097-.306h-.382v-.289h6.072v.289h-.39c-.512 0-.856.111-1.023.334-.177.223-.26.66-.26 1.311v6.23l4.007-6.304zm5.003-1.86h5.905v.289h-.196q-.837 0-1.116.307-.279.304-.279 1.18v3.385q1.175 0 1.525-.083c.233-.056.447-.205.651-.456.196-.251.391-.744.577-1.47.214-.845.428-1.478.632-1.905a2.53 2.53 0 0 1 .846-1.014c.354-.251.809-.372 1.339-.372s.967.149 1.284.456c.325.307.483.678.483 1.125 0 .344-.112.623-.325.818a1.12 1.12 0 0 1-.809.307c-.633 0-.977-.372-1.023-1.106-.019-.373-.149-.559-.381-.559q-.377-.002-.642.428c-.177.288-.372.8-.577 1.525a15 15 0 0 1-.52 1.618c-.14.363-.354.66-.614.902.353.084.632.205.818.354.196.148.363.334.521.567s.493.818 1.004 1.767l1.153 2.064c.177.307.391.54.642.688.251.149.549.223.902.223v.288h-3.803l-2.334-4.342c-.27-.493-.465-.8-.586-.902s-.372-.167-.763-.186v3.85c0 .548.112.901.345 1.06.223.148.641.232 1.255.232v.288h-5.905v-.288c.651-.01 1.079-.111 1.283-.288q.307-.277.307-1.181v-7.597c0-.67-.083-1.116-.242-1.348-.158-.233-.53-.344-1.106-.344h-.242v-.289zm19.164 8.118h-3.97l-.493 1.107c-.158.372-.232.679-.232.92 0 .326.13.558.381.716.149.093.521.158 1.116.205v.288h-3.766V44.5q.614-.096 1.004-.511c.26-.28.586-.856.967-1.73l4.054-9.038h.158l4.092 9.289c.39.893.706 1.45.957 1.683.196.177.456.279.8.307v.288h-5.486V44.5h.223c.437 0 .753-.065.93-.186a.46.46 0 0 0 .186-.39c0-.103-.019-.205-.047-.317-.009-.046-.093-.26-.251-.632l-.623-1.413zm-.269-.623-1.693-3.868-1.729 3.868z" clip-rule="evenodd"/></svg>