<svg xmlns="http://www.w3.org/2000/svg" fill="none" viewBox="0 0 282 71"><path stroke="#00ced1" stroke-linecap="round" stroke-miterlimit="22.93" stroke-width="3.022" d="M60.121 23.889c-2.762 2.315-16.152 21.824-18.55 24.855"/><path stroke="#00ced1" stroke-linecap="round" stroke-miterlimit="22.93" stroke-width="3.022" d="M61.9 40.775c3.692-4.975-1.664-13.418-5.309-16.3-9.531-7.533-36.134-3.265-35.902 9.158.26 13.427 28.23 12.265 36.042 3.208"/><path stroke="#00ced1" stroke-linecap="round" stroke-linejoin="round" stroke-width="3.022" d="M18.766 48.307c1.543-.967 5.402-1.785 11-.595 24.995 5.31 28.714-1.758 48.436-26.594-5.235 7.383-5.95 17.862-12.85 27.32C73.237 39.993 77.3 37 86.31 21.61c-7.309 14.664-12.656 24.772-8.322 27.422 2.808 1.711 8.09-4.36 9.512-6.462"/><path stroke="#00ced1" stroke-miterlimit="22.93" stroke-width="3.031" d="M53.15 68.577c28.518 0 51.636-15.012 51.636-33.53 0-18.52-23.118-33.531-51.635-33.531-28.518 0-51.635 15.012-51.635 33.53 0 18.52 23.118 33.531 51.635 33.531Z"/><path stroke="#00ced1" stroke-miterlimit="22.93" stroke-width="1.73" d="M53.312 64.021c25.755 0 46.633-12.972 46.633-28.974S79.067 6.072 53.312 6.072C27.558 6.072 6.68 19.045 6.68 35.047S27.558 64.02 53.312 64.02Z"/><path fill="#00ced1" fill-rule="evenodd" d="M127.878 17.112v3.024h-.253c-.186-.794-.541-1.402-1.048-1.825a2.65 2.65 0 0 0-1.74-.625 2.5 2.5 0 0 0-1.487.473 2.85 2.85 0 0 0-.997 1.234c-.27.642-.405 1.369-.405 2.163s.101 1.487.287 2.129c.203.642.507 1.132.929 1.453.423.32.963.49 1.622.49.541 0 1.048-.119 1.504-.355.456-.237.929-.659 1.436-1.233v.743q-.735.76-1.52 1.115c-.524.237-1.149.338-1.842.338-.929 0-1.757-.186-2.467-.558a3.94 3.94 0 0 1-1.673-1.605 4.5 4.5 0 0 1-.591-2.23c0-.828.219-1.622.642-2.366a4.7 4.7 0 0 1 1.757-1.74 4.8 4.8 0 0 1 2.349-.608q.912 0 1.926.405c.389.152.642.237.743.237q.204 0 .355-.152c.102-.102.169-.254.203-.473h.254zm9.023.203v2.348h-.219q-.204-.811-.457-1.166a1.8 1.8 0 0 0-.692-.574c-.169-.068-.44-.118-.862-.118h-.659v6.724c0 .457.017.727.068.845.05.119.152.203.287.288s.338.135.574.135h.287v.22H130.7v-.22h.287c.254 0 .457-.051.609-.135a.65.65 0 0 0 .253-.305c.051-.101.068-.371.068-.81v-6.725h-.625c-.575 0-1.014.118-1.268.371-.371.338-.608.845-.692 1.487h-.254v-2.349h7.823zm5.373-.102c1.386-.05 2.518.355 3.38 1.217.862.861 1.301 1.926 1.301 3.227 0 1.098-.321 2.078-.963 2.906-.862 1.116-2.062 1.673-3.633 1.673s-2.771-.524-3.633-1.588c-.676-.845-1.014-1.825-1.014-2.974 0-1.284.44-2.366 1.318-3.227q1.318-1.293 3.244-1.217zm.068.406q-1.19 0-1.825 1.216c-.338.66-.507 1.622-.507 2.873 0 1.487.271 2.585.794 3.295.372.49.879.743 1.538.743.439 0 .811-.101 1.115-.321.372-.27.676-.71.879-1.318s.321-1.386.321-2.349c0-1.149-.102-2.01-.321-2.585-.22-.574-.49-.98-.828-1.216a1.93 1.93 0 0 0-1.149-.355zm11.355 5.44 2.382-5.744h3.531v.22h-.287c-.253 0-.456.05-.608.134a.8.8 0 0 0-.254.305c-.05.1-.067.371-.067.81v5.746c0 .456.017.726.067.844.051.119.136.203.288.288s.338.135.574.135h.287v.22h-4.528v-.22h.287c.254 0 .457-.051.609-.135a.76.76 0 0 0 .253-.305c.051-.101.068-.371.068-.81v-6.455l-3.346 7.941h-.152l-3.396-7.874v6.134c0 .44 0 .693.034.794.05.22.169.389.354.524.186.135.474.203.879.203v.22h-2.991v-.22h.085c.186 0 .372-.034.541-.102a.8.8 0 0 0 .371-.27c.085-.118.152-.27.203-.473v-6.167c0-.457-.017-.727-.068-.845-.05-.119-.135-.203-.287-.288a1.2 1.2 0 0 0-.591-.135h-.271v-.22h3.549l2.45 5.746zm11.591.49h-3.042l-.371.845c-.119.288-.186.524-.186.71a.59.59 0 0 0 .287.54q.178.102.862.153v.22h-2.89v-.22c.305-.051.575-.186.761-.389.203-.22.456-.659.743-1.335l3.109-6.944h.118l3.143 7.13c.304.676.541 1.115.744 1.284.152.136.355.22.625.237V26h-4.207v-.22h.169q.507 0 .709-.152c.102-.068.135-.17.135-.304 0-.085 0-.152-.033-.237 0-.034-.068-.203-.186-.49l-.473-1.081zm-.203-.473-1.301-2.974-1.335 2.974zm11.372-5.761h-7.824v2.348h.254c.101-.642.338-1.132.693-1.487.27-.253.692-.371 1.267-.371h.625v6.724c0 .44-.017.71-.068.811q-.101.229-.253.305a1.25 1.25 0 0 1-.608.135h-.288V26h4.529v-.22h-.288c-.253 0-.439-.034-.574-.135a.77.77 0 0 1-.287-.288c-.051-.118-.068-.388-.068-.844v-6.725h.659c.406 0 .693.034.862.118.287.135.524.321.693.574q.254.356.456 1.166h.22v-2.348zm5.373-.102c1.385-.05 2.517.355 3.379 1.217.862.861 1.301 1.926 1.301 3.227 0 1.098-.321 2.078-.963 2.906-.862 1.116-2.061 1.673-3.633 1.673-1.571 0-2.788-.524-3.633-1.588-.676-.845-1.013-1.825-1.013-2.974 0-1.284.439-2.366 1.317-3.227q1.319-1.293 3.245-1.217zm.084.406q-1.19 0-1.825 1.216c-.338.66-.507 1.622-.507 2.873 0 1.487.271 2.585.795 3.295.371.49.878.743 1.537.743.439 0 .811-.101 1.115-.321.372-.27.676-.71.879-1.318s.321-1.386.321-2.349c0-1.149-.101-2.01-.321-2.585-.22-.574-.49-.98-.828-1.216a1.93 1.93 0 0 0-1.149-.355zm13.839-.085v-.22h-7.063v.22c.422 0 .709.05.878.119a.6.6 0 0 1 .338.337c.051.152.085.474.085.947v1.639c0 1.2-.051 2.129-.152 2.754s-.304 1.132-.609 1.487c-.304.355-.591.54-.861.54-.186 0-.304-.135-.321-.405q-.076-.912-.811-.913-.406 0-.609.254a1.03 1.03 0 0 0-.219.659c0 .32.118.591.338.81.236.22.557.339.98.339.456 0 .878-.135 1.267-.389.388-.253.693-.642.929-1.149a4.8 4.8 0 0 0 .44-1.622c.05-.574.084-1.402.084-2.484v-2.602h2.095v6.827q0 .507-.101.71a.56.56 0 0 1-.304.287c-.136.05-.389.084-.744.084v.22h4.376v-.22c-.49 0-.794-.085-.946-.22q-.203-.203-.203-.912v-6.066c0-.423.068-.693.203-.845s.44-.22.913-.22zm5.44-.32c1.386-.051 2.518.354 3.38 1.216.861.861 1.301 1.926 1.301 3.227 0 1.098-.321 2.078-.963 2.906-.862 1.116-2.062 1.673-3.633 1.673s-2.771-.524-3.633-1.588c-.676-.845-1.014-1.825-1.014-2.974 0-1.284.44-2.366 1.318-3.227q1.318-1.293 3.244-1.217zm.085.405q-1.191 0-1.825 1.216c-.338.66-.507 1.622-.507 2.873 0 1.487.27 2.585.794 3.295.372.49.879.743 1.538.743.439 0 .811-.101 1.115-.321.372-.27.676-.71.879-1.318s.321-1.386.321-2.349c0-1.149-.102-2.01-.321-2.585-.22-.574-.49-.98-.828-1.216a1.93 1.93 0 0 0-1.149-.355zm5.339-.304h7.671v2.365h-.219c-.102-.574-.237-.997-.389-1.233a1.04 1.04 0 0 0-.591-.457c-.237-.067-.693-.1-1.386-.1h-1.774v6.775c0 .49.068.81.22.946.135.135.405.203.777.203h.219v.22h-4.528v-.22h.237c.371 0 .642-.068.777-.22s.203-.456.203-.93V18.65c0-.405-.051-.692-.169-.844-.119-.17-.372-.254-.777-.254h-.271v-.236m14.734 1.436c0-.473-.067-.794-.169-.963-.101-.17-.388-.254-.811-.254h-.287v-.22h4.663v.22h-.304c-.405 0-.676.085-.794.237-.135.152-.203.49-.203 1.03v5.745c0 .541.068.879.203 1.031s.406.237.794.237h.304v.22h-4.663v-.22h.287c.406 0 .676-.085.794-.237.119-.169.186-.507.186-1.014v-4.748l-3.075 4.833c0 .422.051.71.152.895s.389.27.828.27h.304v.22h-4.663v-.22h.287c.405 0 .676-.084.811-.236.135-.169.186-.507.186-1.014v-5.745c0-.523-.051-.878-.152-1.03s-.389-.237-.845-.237h-.287v-.22h4.663v.22h-.304c-.389 0-.659.085-.794.254s-.203.506-.203.997v4.781l3.075-4.832zm8.753-1.436h4.207v.22c-.558 0-.913.05-1.031.168s-.186.389-.186.828v6.15c0 .338.017.558.068.693a.6.6 0 0 0 .27.305c.135.084.338.118.609.118h.287v.22h-4.529v-.22c.389 0 .659-.034.812-.085a.6.6 0 0 0 .321-.287q.1-.203.101-.608v-2.805c-1.014.524-1.943.777-2.754.777-.456 0-.845-.068-1.149-.22-.321-.152-.541-.354-.676-.642q-.203-.405-.203-1.216v-2.045c0-.49-.084-.81-.253-.946s-.49-.203-.947-.203v-.22h4.174v.22c-.287 0-.507.051-.659.17-.152.118-.237.371-.237.743v2.348c0 .27.017.474.068.592a.7.7 0 0 0 .321.355c.169.101.389.152.642.152.541 0 1.098-.152 1.673-.44v-2.686c0-.389-.017-.66-.051-.794a.55.55 0 0 0-.253-.338c-.135-.085-.321-.119-.592-.119v-.22zm8.042.506v3.549h.169c.558 0 .964-.17 1.2-.524.254-.338.406-.862.473-1.538h.254v4.563h-.254c-.05-.49-.152-.913-.321-1.217-.169-.321-.355-.524-.574-.642-.22-.102-.541-.17-.947-.17v2.45c0 .474.017.778.068.88a.56.56 0 0 0 .22.27c.118.067.287.101.54.101h.524c.811 0 1.47-.186 1.96-.557s.845-.947 1.048-1.724h.236l-.388 2.771h-7.519v-.22h.287c.253 0 .456-.05.608-.134a.57.57 0 0 0 .254-.305c.05-.101.067-.371.067-.81v-5.746c0-.388 0-.642-.034-.726a.58.58 0 0 0-.236-.355 1.13 1.13 0 0 0-.659-.186h-.287v-.22h7.282V19.9h-.253c-.119-.625-.304-1.082-.524-1.352s-.541-.473-.946-.608c-.237-.068-.693-.119-1.335-.119zm13.957-.71v3.025h-.253c-.186-.794-.541-1.402-1.048-1.825a2.65 2.65 0 0 0-1.74-.625 2.5 2.5 0 0 0-1.487.473 2.85 2.85 0 0 0-.997 1.234c-.27.642-.406 1.369-.406 2.163s.102 1.487.288 2.129c.202.642.507 1.132.929 1.453.422.32.963.49 1.622.49.541 0 1.048-.119 1.504-.355.456-.237.929-.659 1.436-1.233v.743q-.735.76-1.521 1.115c-.523.237-1.149.338-1.841.338-.93 0-1.758-.186-2.467-.558a3.94 3.94 0 0 1-1.673-1.605 4.5 4.5 0 0 1-.591-2.23c0-.828.219-1.622.659-2.366a4.7 4.7 0 0 1 1.757-1.74 4.8 4.8 0 0 1 2.348-.608q.913 0 1.927.405c.388.152.642.237.743.237q.203 0 .355-.152c.101-.102.169-.254.203-.473h.253zm.997.204h4.528v.22h-.152c-.422 0-.709.084-.861.236-.136.152-.22.456-.22.912v2.602c.608 0 .997-.017 1.166-.067.186-.034.338-.152.507-.355.152-.203.304-.575.439-1.132.169-.642.321-1.132.49-1.453.152-.321.372-.592.642-.778.27-.185.625-.287 1.031-.287s.743.118.98.355c.253.237.372.524.372.862 0 .27-.085.473-.254.625a.9.9 0 0 1-.625.236c-.49 0-.744-.287-.794-.844-.017-.288-.119-.423-.287-.423-.186 0-.355.102-.49.321-.136.22-.288.609-.44 1.166-.152.558-.287.963-.405 1.25-.102.27-.271.507-.473.693.27.068.49.152.625.27.152.119.287.254.405.44.119.169.372.625.778 1.352l.878 1.588c.135.236.304.406.49.524s.423.169.693.169v.22H259.2l-1.791-3.33c-.203-.388-.355-.608-.456-.692-.102-.085-.288-.135-.575-.135v2.957q0 .633.253.81c.169.119.49.17.964.17v.22h-4.529v-.22c.507 0 .828-.085.98-.22s.237-.44.237-.912v-5.83c0-.507-.068-.861-.186-1.03s-.406-.27-.845-.27h-.186v-.22zm14.717 6.234h-3.041l-.372.845c-.118.288-.186.524-.186.71a.59.59 0 0 0 .287.54q.178.102.862.153v.22h-2.889v-.22c.304-.051.574-.186.777-.389.203-.22.456-.659.743-1.335l3.109-6.944h.119l3.142 7.13c.305.676.541 1.115.744 1.284.152.136.355.22.625.237V26h-4.207v-.22h.169q.507 0 .709-.152c.102-.068.136-.17.136-.304 0-.085 0-.152-.034-.237 0-.034-.068-.203-.186-.49l-.473-1.081zm-.203-.473-1.301-2.974-1.335 2.974zm10.189-1.013v2.45c0 .473-.034.76-.084.895a.56.56 0 0 1-.305.287c-.152.068-.422.119-.811.119v.22h4.461v-.22c-.405 0-.676-.034-.811-.119a.57.57 0 0 1-.304-.287c-.051-.118-.085-.422-.085-.879v-5.694c0-.473.034-.76.085-.878a.57.57 0 0 1 .304-.288q.228-.1.811-.101v-.22h-4.055c-1.048 0-1.825.068-2.315.22s-.879.406-1.2.811c-.304.389-.456.845-.456 1.386 0 .642.237 1.165.693 1.588.304.27.71.473 1.233.591l-2.095 2.957c-.27.372-.473.608-.591.71a1.1 1.1 0 0 1-.608.22v.236h2.737l2.805-3.97h.574zm0-4.258v3.801h-.372c-.591 0-1.047-.05-1.335-.169a1.3 1.3 0 0 1-.692-.591q-.254-.43-.254-1.115c0-.66.152-1.15.473-1.47.305-.321.811-.473 1.504-.473h.693zM119.172 32.116h10.729v.524h-.355q-1.52 0-2.027.557c-.338.372-.507 1.082-.507 2.146v6.15c1.419 0 2.349-.05 2.771-.151.422-.102.811-.372 1.183-.828s.709-1.352 1.047-2.67c.389-1.538.778-2.686 1.149-3.464.372-.777.879-1.385 1.538-1.841.642-.457 1.47-.676 2.433-.676s1.757.27 2.332.828c.591.557.878 1.233.878 2.044 0 .625-.202 1.132-.591 1.487q-.584.558-1.47.558c-1.149 0-1.774-.676-1.859-2.011-.033-.676-.27-1.014-.692-1.014-.457 0-.845.254-1.166.777-.321.524-.676 1.454-1.048 2.772-.355 1.3-.676 2.28-.946 2.94a4.34 4.34 0 0 1-1.115 1.639c.642.151 1.149.371 1.487.642.355.27.659.608.946 1.03s.895 1.487 1.825 3.21l2.095 3.752c.321.557.71.98 1.166 1.25s.997.406 1.639.406v.523h-6.911l-4.241-7.89c-.49-.896-.845-1.453-1.065-1.64-.219-.185-.675-.303-1.385-.337v6.995c0 .997.203 1.639.625 1.926.406.27 1.166.423 2.281.423v.523h-10.729v-.523c1.183-.017 1.96-.203 2.332-.524.371-.338.557-1.048.557-2.146V35.698c0-1.216-.152-2.027-.439-2.45-.287-.422-.963-.625-2.011-.625h-.439V32.1zm44.236.524c-1.116 0-1.842.186-2.163.54s-.49 1.031-.49 2.011v14.346c0 1.098.169 1.825.49 2.146s1.064.507 2.23.523v.524h-10.358v-.524c.828 0 1.403-.067 1.741-.202.338-.136.574-.372.726-.676.152-.321.237-.879.237-1.69v-16.17h-4.951v6.15c0 2.569-.067 4.545-.186 5.88a11.1 11.1 0 0 1-1.047 3.836c-.575 1.216-1.318 2.129-2.214 2.737a5.2 5.2 0 0 1-2.991.913c-.996 0-1.757-.254-2.314-.778a2.6 2.6 0 0 1-.828-1.943q0-.963.507-1.571c.338-.406.811-.625 1.453-.625q1.749 0 1.926 2.18.076.962.76.962c.642 0 1.318-.422 2.028-1.284.726-.861 1.2-2.044 1.436-3.531.237-1.504.355-3.684.355-6.522v-3.886q0-1.674-.203-2.23c-.135-.373-.405-.643-.794-.812s-1.081-.27-2.078-.287v-.524h16.728v.524zm16.609 2.855c0-1.115-.152-1.875-.406-2.264-.253-.388-.895-.591-1.926-.591h-.676v-.524h11.034v.524h-.71c-.946 0-1.588.186-1.892.557s-.473 1.183-.473 2.434v13.585c0 1.267.152 2.078.473 2.45.321.355.946.54 1.892.54h.71v.524h-11.034v-.524h.676c.963 0 1.589-.186 1.893-.574.287-.389.439-1.183.439-2.416V37.979l-7.282 11.44c0 .996.118 1.69.354 2.128.237.423.896.643 1.977.643h.71v.523h-11.034v-.523h.693c.963 0 1.605-.186 1.909-.575s.457-1.183.457-2.416V35.614c0-1.25-.119-2.062-.372-2.433-.237-.372-.912-.558-1.994-.558h-.693V32.1h11.034v.524h-.71c-.929 0-1.554.203-1.858.608-.321.406-.473 1.2-.473 2.383v11.32l7.282-11.455zm16.947 7.317v6.404c0 1.064.051 1.723.169 1.993s.338.49.676.693q.507.304 1.369.304h.676v.524h-10.73v-.524h.676c.592 0 1.082-.101 1.436-.32.271-.153.474-.39.609-.744.101-.237.169-.879.169-1.926V35.63c0-1.065-.051-1.724-.169-1.994s-.338-.49-.676-.693q-.507-.304-1.369-.304h-.676v-.524h10.73v.524h-.676c-.592 0-1.065.101-1.436.321a1.55 1.55 0 0 0-.626.744c-.101.236-.168.878-.168 1.926v5.846h7.316V35.63c0-1.065-.051-1.724-.169-1.994s-.338-.49-.676-.693q-.507-.304-1.369-.304h-.676v-.524h10.73v.524h-.676c-.608 0-1.081.101-1.436.321-.271.152-.473.389-.625.744-.102.236-.169.878-.169 1.926v13.585c0 1.064.05 1.723.169 1.993.118.27.338.49.675.693q.507.304 1.369.304h.676v.524h-10.729v-.524h.675c.609 0 1.082-.101 1.437-.32.27-.153.473-.39.625-.744.101-.237.169-.879.169-1.926v-6.404h-7.316zm31.428-7.316c0-1.116-.152-1.876-.405-2.265-.254-.388-.896-.591-1.926-.591h-.676v-.524h11.033v.524h-.709c-.947 0-1.589.186-1.893.557s-.473 1.183-.473 2.434v13.585c0 1.267.152 2.078.473 2.45.321.355.946.54 1.893.54h.709v.524h-11.033v-.524h.676c.963 0 1.588-.186 1.892-.574.287-.389.439-1.183.439-2.416V37.979l-7.282 11.44c0 .996.118 1.69.355 2.128.236.423.895.643 1.977.643h.709v.523h-11.033v-.523h.692c.964 0 1.606-.186 1.91-.575s.456-1.183.456-2.416V35.614c0-1.25-.118-2.062-.372-2.433-.236-.372-.912-.558-1.994-.558h-.692V32.1h11.033v.524h-.709c-.93 0-1.555.203-1.859.608-.321.406-.473 1.2-.473 2.383v11.32l7.282-11.455zm9.091-3.38h10.729v.524h-.355q-1.52 0-2.027.557c-.338.372-.507 1.082-.507 2.146v6.15c1.419 0 2.348-.05 2.771-.151.422-.102.811-.372 1.183-.828.355-.456.709-1.352 1.047-2.67.389-1.538.778-2.686 1.149-3.464.372-.777.879-1.385 1.538-1.841.642-.457 1.47-.676 2.433-.676s1.757.27 2.332.828c.591.557.878 1.233.878 2.044 0 .625-.202 1.132-.591 1.487q-.584.558-1.47.558c-1.149 0-1.774-.676-1.859-2.011-.033-.676-.27-1.014-.692-1.014-.457 0-.845.254-1.166.777-.321.524-.676 1.454-1.048 2.772-.355 1.3-.676 2.28-.946 2.94a4.36 4.36 0 0 1-1.115 1.639c.642.151 1.149.371 1.487.642.354.27.659.608.946 1.03s.895 1.487 1.825 3.21l2.095 3.752c.321.557.71.98 1.166 1.25s.997.406 1.639.406v.523h-6.911l-4.241-7.89c-.49-.896-.845-1.453-1.065-1.64-.219-.185-.675-.303-1.385-.337v6.995c0 .997.203 1.639.625 1.926.406.27 1.166.423 2.281.423v.523H237.5v-.523c1.182-.017 1.96-.203 2.331-.524.372-.338.558-1.048.558-2.146V35.698c0-1.216-.152-2.027-.439-2.45-.288-.422-.963-.625-2.011-.625h-.439V32.1zm34.824 14.751h-7.215l-.896 2.01c-.287.677-.422 1.234-.422 1.673 0 .592.237 1.014.693 1.302.27.169.946.287 2.027.371v.524h-6.843v-.524c.744-.118 1.352-.422 1.825-.929s1.065-1.554 1.757-3.143l7.367-16.424h.288l7.434 16.88c.71 1.623 1.284 2.636 1.741 3.059.354.32.827.507 1.453.557v.524h-9.969v-.524h.405c.794 0 1.369-.118 1.69-.338.219-.152.338-.405.338-.71a2.4 2.4 0 0 0-.085-.574c-.017-.084-.169-.473-.456-1.149l-1.132-2.568zm-.49-1.132-3.075-7.03-3.143 7.03z" clip-rule="evenodd"/></svg>